<?xml version="1.0" encoding="UTF-8"?>
<svg width="275" height="275" viewBox="0 0 275 275" version="1.1" xmlns="http://www.w3.org/2000/svg" xmlns:xlink="http://www.w3.org/1999/xlink">
 <path d="M195.18,160.46 c-2.36,0,-4.4,0.85,-6.1,2.56 c-1.7,1.7,-2.56,3.77,-2.56,6.21 c0,2.36,0.85,4.39,2.56,6.1 c1.7,1.71,3.74,2.56,6.1,2.56 l80.88,0 c2.36,0,4.4,-0.85,6.1,-2.56 c1.7,-1.71,2.56,-3.74,2.56,-6.1 c0,-2.44,-0.85,-4.51,-2.56,-6.21 c-1.7,-1.7,-3.74,-2.56,-6.1,-2.56 Z M195.12,-11.13 c-2.44,0,-4.52,0.85,-6.22,2.56 c-1.71,1.71,-2.56,3.78,-2.56,6.21 c0,2.37,0.85,4.41,2.56,6.11 c1.71,1.7,3.78,2.55,6.22,2.55 l81.42,0 c2.44,0,4.51,-0.85,6.21,-2.55 c1.7,-1.7,2.56,-3.74,2.56,-6.11 c0,-2.44,-0.85,-4.51,-2.56,-6.21 c-1.7,-1.71,-3.77,-2.56,-6.21,-2.56 Z M215.24,21.23 c-2.77,0,-5.13,0.97,-7.06,2.9 c-1.93,1.93,-2.9,4.29,-2.9,7.06 c0,2.78,0.97,5.14,2.9,7.07 c1.93,1.93,4.29,2.9,7.06,2.9 c2.78,0,5.14,-0.97,7.07,-2.9 c1.93,-1.93,2.9,-4.29,2.9,-7.07 c0,-2.77,-0.97,-5.13,-2.9,-7.06 c-1.93,-1.93,-4.29,-2.9,-7.07,-2.9 Z M215.24,56.08 c-2.77,0,-5.13,0.97,-7.06,2.91 c-1.93,1.94,-2.9,4.26,-2.9,6.96 c0,2.77,0.97,5.13,2.9,7.06 c1.93,1.93,4.29,2.9,7.06,2.9 c2.78,0,5.14,-0.97,7.07,-2.9 c1.93,-1.93,2.9,-4.29,2.9,-7.06 c0,-2.7,-0.97,-5.02,-2.9,-6.96 c-1.93,-1.94,-4.29,-2.91,-7.07,-2.91 Z M256.68,21.23 c-2.77,0,-5.13,0.97,-7.06,2.9 c-1.93,1.93,-2.9,4.29,-2.9,7.06 c0,2.78,0.97,5.14,2.9,7.07 c1.93,1.93,4.29,2.9,7.06,2.9 c2.78,0,5.12,-0.97,7.02,-2.9 c1.9,-1.93,2.85,-4.29,2.85,-7.07 c0,-2.77,-0.95,-5.13,-2.85,-7.06 c-1.9,-1.93,-4.24,-2.9,-7.02,-2.9 Z M215.24,90.84 c-2.77,0,-5.13,0.97,-7.06,2.9 c-1.93,1.93,-2.9,4.29,-2.9,7.06 c0,2.78,0.97,5.12,2.9,7.02 c1.93,1.9,4.29,2.85,7.06,2.85 c2.78,0,5.14,-0.95,7.07,-2.85 c1.93,-1.9,2.9,-4.24,2.9,-7.02 c0,-2.77,-0.97,-5.13,-2.9,-7.06 c-1.93,-1.93,-4.29,-2.9,-7.07,-2.9 Z M256.68,56.08 c-2.77,0,-5.13,0.97,-7.06,2.91 c-1.93,1.94,-2.9,4.26,-2.9,6.96 c0,2.77,0.97,5.13,2.9,7.06 c1.93,1.93,4.29,2.9,7.06,2.9 c2.78,0,5.12,-0.97,7.02,-2.9 c1.9,-1.93,2.85,-4.29,2.85,-7.06 c0,-2.7,-0.95,-5.02,-2.85,-6.96 c-1.9,-1.94,-4.24,-2.91,-7.02,-2.91 Z M215.24,125.59 c-2.77,0,-5.13,0.99,-7.06,2.96 c-1.93,1.97,-2.9,4.31,-2.9,7.02 c0,2.7,0.97,5.03,2.9,7.0 c1.93,1.97,4.29,2.96,7.06,2.96 c2.78,0,5.14,-0.99,7.07,-2.96 c1.93,-1.97,2.9,-4.31,2.9,-7.0 c0,-2.71,-0.97,-5.05,-2.9,-7.02 c-1.93,-1.97,-4.29,-2.96,-7.07,-2.96 Z M256.68,90.84 c-2.77,0,-5.13,0.97,-7.06,2.9 c-1.93,1.93,-2.9,4.29,-2.9,7.06 c0,2.78,0.97,5.12,2.9,7.02 c1.93,1.9,4.29,2.85,7.06,2.85 c2.78,0,5.12,-0.95,7.02,-2.85 c1.9,-1.9,2.85,-4.24,2.85,-7.02 c0,-2.77,-0.95,-5.13,-2.85,-7.06 c-1.9,-1.93,-4.24,-2.9,-7.02,-2.9 Z M256.68,125.59 c-2.77,0,-5.13,0.99,-7.06,2.96 c-1.93,1.97,-2.9,4.31,-2.9,7.02 c0,2.7,0.97,5.03,2.9,7.0 c1.93,1.97,4.29,2.96,7.06,2.96 c2.78,0,5.12,-0.99,7.02,-2.96 c1.9,-1.97,2.85,-4.31,2.85,-7.0 c0,-2.71,-0.95,-5.05,-2.85,-7.02 c-1.9,-1.97,-4.24,-2.96,-7.02,-2.96 Z M181.93,83.37 c0,-1.45,-0.34,-2.98,-1.02,-4.59 c-0.68,-1.62,-1.8,-3.13,-3.36,-4.52 l-54.07,-51.11 c-1.79,-1.7,-3.59,-2.97,-5.4,-3.81 c-1.81,-0.85,-3.77,-1.27,-5.88,-1.27 c-3.1,0,-5.64,1.02,-7.63,3.05 c-1.99,2.03,-2.99,4.56,-2.99,7.58 l0,23.32 l-52.34,0 c-6.19,0,-11.04,1.72,-14.55,5.16 c-3.52,3.44,-5.27,8.22,-5.27,14.32 l0,23.67 c0,6.05,1.76,10.81,5.27,14.29 c3.52,3.48,8.37,5.22,14.55,5.22 l52.34,0 l0,22.93 c0,2.94,1.02,5.54,3.05,7.79 c2.03,2.25,4.59,3.38,7.69,3.38 c2.1,0,3.99,-0.48,5.69,-1.43 c1.69,-0.95,3.52,-2.35,5.48,-4.21 l54.08,-50.57 c1.56,-1.47,2.68,-3.01,3.35,-4.61 c0.67,-1.6,1.01,-3.13,1.01,-4.59 Z M443.24,83.37 c0,-1.45,-0.34,-2.98,-1.02,-4.59 c-0.68,-1.62,-1.76,-3.13,-3.25,-4.52 l-54.18,-51.11 c-1.79,-1.7,-3.59,-2.97,-5.4,-3.81 c-1.81,-0.85,-3.73,-1.27,-5.77,-1.27 c-3.1,0,-5.64,1.02,-7.63,3.05 c-1.99,2.03,-2.99,4.56,-2.99,7.58 l0,23.32 l-52.45,0 c-6.19,0,-11.02,1.72,-14.5,5.16 c-3.48,3.44,-5.22,8.22,-5.22,14.32 l0,23.67 c0,6.05,1.74,10.81,5.22,14.29 c3.48,3.48,8.31,5.22,14.5,5.22 l52.45,0 l0,22.93 c0,2.94,1.0,5.54,2.99,7.79 c1.99,2.25,4.57,3.38,7.74,3.38 c2.1,0,3.98,-0.48,5.64,-1.43 c1.66,-0.95,3.47,-2.35,5.42,-4.21 l54.19,-50.57 c1.56,-1.47,2.66,-3.01,3.3,-4.61 c0.64,-1.6,0.96,-3.13,0.96,-4.59 Z M310.97,67.55 l63.58,0 c2.85,0,4.27,-1.46,4.27,-4.38 l0,-23.54 l43.95,41.43 c0.46,0.39,0.76,0.78,0.92,1.16 c0.16,0.38,0.24,0.77,0.24,1.16 c0,0.86,-0.39,1.64,-1.16,2.32 l-43.95,41.86 l0,-24.15 c0,-2.86,-1.42,-4.29,-4.27,-4.29 l-63.58,0 c-3.05,0,-4.57,-1.59,-4.57,-4.78 l0,-22.2 c0,-3.06,1.52,-4.59,4.57,-4.59 Z M310.97,67.55" fill="rgb(0,0,0)" transform="matrix(1,0,0,-1,-98.83193969726562,220.8740234375)"/>
</svg>