<?xml version="1.0" encoding="UTF-8"?>
<svg width="275" height="275" viewBox="0 0 275 275" version="1.1" xmlns="http://www.w3.org/2000/svg" xmlns:xlink="http://www.w3.org/1999/xlink">
 <path d="M153.69,-59.2 c-8.95,0,-17.05,3.48,-24.29,10.44 c-7.24,6.96,-13.45,16.91,-18.62,29.85 c-5.17,12.94,-9.13,28.44,-11.9,46.51 c-2.77,18.07,-4.15,38.25,-4.15,60.55 c0,22.22,1.38,42.34,4.15,60.36 c2.77,18.03,6.73,33.49,11.9,46.39 c5.17,12.9,11.37,22.83,18.62,29.79 c7.24,6.96,15.34,10.44,24.29,10.44 c8.95,0,17.05,-3.48,24.29,-10.44 c7.24,-6.96,13.45,-16.89,18.62,-29.79 c5.17,-12.9,9.13,-28.36,11.9,-46.39 c2.77,-18.03,4.15,-38.15,4.15,-60.36 c0,-22.3,-1.38,-42.48,-4.15,-60.55 c-2.77,-18.07,-6.73,-33.57,-11.9,-46.51 c-5.17,-12.94,-11.37,-22.89,-18.62,-29.85 c-7.24,-6.96,-15.34,-10.44,-24.29,-10.44 Z M153.69,-41.26 c7.98,0,14.93,5.35,20.87,16.05 c5.94,10.7,10.56,25.74,13.85,45.1 c3.3,19.37,4.94,42.11,4.94,68.24 c0,26.04,-1.65,48.73,-4.94,68.05 c-3.3,19.33,-7.91,34.32,-13.85,44.98 c-5.94,10.66,-12.9,15.99,-20.87,15.99 c-7.98,0,-14.91,-5.33,-20.81,-15.99 c-5.9,-10.66,-10.5,-25.66,-13.79,-44.98 c-3.3,-19.33,-4.94,-42.01,-4.94,-68.05 c0,-26.12,1.65,-48.87,4.94,-68.24 c3.3,-19.37,7.89,-34.4,13.79,-45.1 c5.9,-10.7,12.84,-16.05,20.81,-16.05 Z M26.12,13.18 c-4.39,7.73,-5.39,16.44,-2.99,26.12 c2.4,9.68,7.91,20.0,16.54,30.94 c8.63,10.95,20.08,22.14,34.36,33.57 c14.28,11.43,31.07,22.77,50.35,34.0 c19.29,11.15,37.43,20.02,54.44,26.61 c17.01,6.59,32.39,10.88,46.14,12.88 c13.75,1.99,25.45,1.59,35.1,-1.22 c9.64,-2.81,16.7,-8.08,21.18,-15.81 c4.48,-7.81,5.51,-16.58,3.11,-26.31 c-2.4,-9.72,-7.89,-20.04,-16.48,-30.94 c-8.59,-10.91,-20.02,-22.07,-34.3,-33.51 c-14.28,-11.43,-31.07,-22.68,-50.35,-33.75 c-19.29,-11.15,-37.48,-20.04,-54.57,-26.67 c-17.09,-6.63,-32.51,-10.95,-46.26,-12.94 c-13.75,-1.99,-25.45,-1.59,-35.1,1.22 c-9.64,2.81,-16.7,8.08,-21.18,15.81 Z M41.87,22.22 c3.99,-6.92,12.06,-10.27,24.23,-10.07 c12.17,0.2,27.47,3.74,45.9,10.62 c18.43,6.88,39.0,16.87,61.71,29.97 c22.54,12.94,41.36,25.66,56.46,38.15 c15.1,12.49,25.76,23.97,31.98,34.42 c6.23,10.46,7.34,19.06,3.36,25.82 c-3.99,6.92,-12.06,10.29,-24.23,10.13 c-12.17,-0.16,-27.45,-3.66,-45.84,-10.5 c-18.39,-6.84,-38.82,-16.76,-61.28,-29.79 c-22.71,-13.1,-41.63,-25.92,-56.76,-38.45 c-15.14,-12.53,-25.84,-24.01,-32.1,-34.42 c-6.27,-10.42,-7.41,-19.04,-3.42,-25.88 Z M281.25,13.18 c-4.48,-7.73,-11.52,-13.0,-21.12,-15.81 c-9.6,-2.81,-21.3,-3.21,-35.1,-1.22 c-13.79,1.99,-29.22,6.31,-46.26,12.94 c-17.05,6.63,-35.26,15.52,-54.63,26.67 c-19.29,11.07,-36.05,22.32,-50.29,33.75 c-14.24,11.43,-25.68,22.6,-34.3,33.51 c-8.63,10.91,-14.14,21.22,-16.54,30.94 c-2.4,9.72,-1.36,18.49,3.11,26.31 c4.56,7.73,11.64,13.0,21.24,15.81 c9.6,2.81,21.28,3.21,35.03,1.22 c13.75,-1.99,29.13,-6.29,46.14,-12.88 c17.01,-6.59,35.16,-15.46,54.44,-26.61 c19.37,-11.23,36.17,-22.56,50.42,-34.0 c14.24,-11.43,25.68,-22.62,34.3,-33.57 c8.63,-10.95,14.14,-21.26,16.54,-30.94 c2.4,-9.68,1.4,-18.39,-2.99,-26.12 Z M265.5,22.22 c3.99,6.84,2.87,15.46,-3.36,25.88 c-6.23,10.42,-16.93,21.89,-32.1,34.42 c-15.18,12.53,-34.08,25.35,-56.7,38.45 c-22.54,13.02,-42.99,22.95,-61.34,29.79 c-18.35,6.84,-33.63,10.34,-45.84,10.5 c-12.21,0.16,-20.3,-3.21,-24.29,-10.13 c-3.99,-6.75,-2.87,-15.36,3.36,-25.82 c6.23,-10.46,16.91,-21.93,32.04,-34.42 c15.14,-12.49,33.98,-25.21,56.52,-38.15 c22.62,-13.1,43.15,-23.09,61.58,-29.97 c18.43,-6.88,33.73,-10.42,45.9,-10.62 c12.17,-0.2,20.24,3.15,24.23,10.07 Z M153.81,62.01 c-7.16,0,-13.29,2.52,-18.37,7.57 c-5.09,5.05,-7.63,11.19,-7.63,18.43 c0,7.08,2.54,13.16,7.63,18.25 c5.09,5.09,11.21,7.63,18.37,7.63 c7.16,0,13.26,-2.54,18.31,-7.63 c5.05,-5.09,7.57,-11.17,7.57,-18.25 c0,-7.24,-2.52,-13.39,-7.57,-18.43 c-5.05,-5.05,-11.15,-7.57,-18.31,-7.57 Z M153.81,62.01" fill="rgb(0,0,0)" transform="matrix(1,0,0,-1,-16.186523437500014,225.45166015625)"/>
</svg>