<?xml version="1.0" encoding="UTF-8"?>
<svg width="25" height="25" viewBox="0 0 25 25" version="1.1" xmlns="http://www.w3.org/2000/svg" xmlns:xlink="http://www.w3.org/1999/xlink">
 <path d="M15.54,12.78 c-0.19,0,-0.35,0.07,-0.49,0.2 c-0.14,0.14,-0.2,0.3,-0.2,0.49 c0,0.19,0.07,0.35,0.2,0.49 c0.14,0.14,0.3,0.2,0.49,0.2 l6.44,0 c0.19,0,0.35,-0.07,0.49,-0.2 c0.14,-0.14,0.2,-0.3,0.2,-0.49 c0,-0.19,-0.07,-0.36,-0.2,-0.49 c-0.14,-0.14,-0.3,-0.2,-0.49,-0.2 Z M15.54,-0.89 c-0.19,0,-0.36,0.07,-0.5,0.2 c-0.14,0.14,-0.2,0.3,-0.2,0.49 c0,0.19,0.07,0.35,0.2,0.49 c0.14,0.14,0.3,0.2,0.5,0.2 l6.48,0 c0.19,0,0.36,-0.07,0.49,-0.2 c0.14,-0.14,0.2,-0.3,0.2,-0.49 c0,-0.19,-0.07,-0.36,-0.2,-0.49 c-0.14,-0.14,-0.3,-0.2,-0.49,-0.2 Z M17.14,1.69 c-0.22,0,-0.41,0.08,-0.56,0.23 c-0.15,0.15,-0.23,0.34,-0.23,0.56 c0,0.22,0.08,0.41,0.23,0.56 c0.15,0.15,0.34,0.23,0.56,0.23 c0.22,0.0,0.41,-0.08,0.56,-0.23 c0.15,-0.15,0.23,-0.34,0.23,-0.56 c0,-0.22,-0.08,-0.41,-0.23,-0.56 c-0.15,-0.15,-0.34,-0.23,-0.56,-0.23 Z M17.14,4.47 c-0.22,0,-0.41,0.08,-0.56,0.23 c-0.15,0.15,-0.23,0.34,-0.23,0.55 c0,0.22,0.08,0.41,0.23,0.56 c0.15,0.15,0.34,0.23,0.56,0.23 c0.22,0,0.41,-0.08,0.56,-0.23 c0.15,-0.15,0.23,-0.34,0.23,-0.56 c0,-0.21,-0.08,-0.4,-0.23,-0.55 c-0.15,-0.15,-0.34,-0.23,-0.56,-0.23 Z M20.44,1.69 c-0.22,0,-0.41,0.08,-0.56,0.23 c-0.15,0.15,-0.23,0.34,-0.23,0.56 c0,0.22,0.08,0.41,0.23,0.56 c0.15,0.15,0.34,0.23,0.56,0.23 c0.22,0.0,0.41,-0.08,0.56,-0.23 c0.15,-0.15,0.23,-0.34,0.23,-0.56 c0,-0.22,-0.08,-0.41,-0.23,-0.56 c-0.15,-0.15,-0.34,-0.23,-0.56,-0.23 Z M17.14,7.23 c-0.22,0,-0.41,0.08,-0.56,0.23 c-0.15,0.15,-0.23,0.34,-0.23,0.56 c0,0.22,0.08,0.41,0.23,0.56 c0.15,0.15,0.34,0.23,0.56,0.23 c0.22,0,0.41,-0.08,0.56,-0.23 c0.15,-0.15,0.23,-0.34,0.23,-0.56 c0,-0.22,-0.08,-0.41,-0.23,-0.56 c-0.15,-0.15,-0.34,-0.23,-0.56,-0.23 Z M20.44,4.47 c-0.22,0,-0.41,0.08,-0.56,0.23 c-0.15,0.15,-0.23,0.34,-0.23,0.55 c0,0.22,0.08,0.41,0.23,0.56 c0.15,0.15,0.34,0.23,0.56,0.23 c0.22,0,0.41,-0.08,0.56,-0.23 c0.15,-0.15,0.23,-0.34,0.23,-0.56 c0,-0.21,-0.08,-0.4,-0.23,-0.55 c-0.15,-0.15,-0.34,-0.23,-0.56,-0.23 Z M17.14,10.0 c-0.22,0,-0.41,0.08,-0.56,0.24 c-0.15,0.16,-0.23,0.34,-0.23,0.56 c0,0.21,0.08,0.4,0.23,0.56 c0.15,0.16,0.34,0.24,0.56,0.24 c0.22,0,0.41,-0.08,0.56,-0.24 c0.15,-0.16,0.23,-0.34,0.23,-0.56 c0,-0.22,-0.08,-0.4,-0.23,-0.56 c-0.15,-0.16,-0.34,-0.24,-0.56,-0.24 Z M20.44,7.23 c-0.22,0,-0.41,0.08,-0.56,0.23 c-0.15,0.15,-0.23,0.34,-0.23,0.56 c0,0.22,0.08,0.41,0.23,0.56 c0.15,0.15,0.34,0.23,0.56,0.23 c0.22,0,0.41,-0.08,0.56,-0.23 c0.15,-0.15,0.23,-0.34,0.23,-0.56 c0,-0.22,-0.08,-0.41,-0.23,-0.56 c-0.15,-0.15,-0.34,-0.23,-0.56,-0.23 Z M20.44,10.0 c-0.22,0,-0.41,0.08,-0.56,0.24 c-0.15,0.16,-0.23,0.34,-0.23,0.56 c0,0.21,0.08,0.4,0.23,0.56 c0.15,0.16,0.34,0.24,0.56,0.24 c0.22,0,0.41,-0.08,0.56,-0.24 c0.15,-0.16,0.23,-0.34,0.23,-0.56 c0,-0.22,-0.08,-0.4,-0.23,-0.56 c-0.15,-0.16,-0.34,-0.24,-0.56,-0.24 Z M14.49,6.64 c-0.0,-0.12,-0.03,-0.24,-0.08,-0.37 c-0.05,-0.13,-0.14,-0.25,-0.27,-0.36 l-4.31,-4.07 c-0.14,-0.14,-0.29,-0.24,-0.43,-0.3 c-0.14,-0.07,-0.3,-0.1,-0.47,-0.1 c-0.25,0,-0.45,0.08,-0.61,0.24 c-0.16,0.16,-0.24,0.36,-0.24,0.6 l0,1.86 l-4.17,0 c-0.49,0,-0.88,0.14,-1.16,0.41 c-0.28,0.27,-0.42,0.65,-0.42,1.14 l0,1.89 c0,0.48,0.14,0.86,0.42,1.14 c0.28,0.28,0.67,0.42,1.16,0.42 l4.17,0 l0,1.83 c0,0.23,0.08,0.44,0.24,0.62 c0.16,0.18,0.37,0.27,0.61,0.27 c0.17,0,0.32,-0.04,0.45,-0.11 c0.13,-0.08,0.28,-0.19,0.44,-0.34 l4.31,-4.03 c0.12,-0.12,0.21,-0.24,0.27,-0.37 c0.05,-0.13,0.08,-0.25,0.08,-0.37 Z M35.3,6.64 c0,-0.12,-0.03,-0.24,-0.08,-0.37 c-0.05,-0.13,-0.14,-0.25,-0.26,-0.36 l-4.31,-4.07 c-0.14,-0.14,-0.29,-0.24,-0.43,-0.3 c-0.14,-0.07,-0.3,-0.1,-0.46,-0.1 c-0.25,0,-0.45,0.08,-0.61,0.24 c-0.16,0.16,-0.24,0.36,-0.24,0.6 l0,1.86 l-4.18,0 c-0.49,0,-0.88,0.14,-1.15,0.41 c-0.28,0.27,-0.42,0.65,-0.42,1.14 l0,1.89 c0,0.48,0.14,0.86,0.42,1.14 c0.28,0.28,0.66,0.42,1.15,0.42 l4.18,0 l0,1.83 c0,0.23,0.08,0.44,0.24,0.62 c0.16,0.18,0.36,0.27,0.62,0.27 c0.17,0,0.32,-0.04,0.45,-0.11 c0.13,-0.08,0.28,-0.19,0.43,-0.34 l4.32,-4.03 c0.12,-0.12,0.21,-0.24,0.26,-0.37 c0.05,-0.13,0.08,-0.25,0.08,-0.37 Z M24.76,5.38 l5.06,0 c0.23,0,0.34,-0.12,0.34,-0.35 l0,-1.87 l3.5,3.3 c0.04,0.03,0.06,0.06,0.07,0.09 c0.01,0.03,0.02,0.06,0.02,0.09 c0,0.07,-0.03,0.13,-0.09,0.19 l-3.5,3.33 l0,-1.92 c0,-0.23,-0.11,-0.34,-0.34,-0.34 l-5.06,0 c-0.24,0,-0.36,-0.13,-0.36,-0.38 l0,-1.77 c0.0,-0.24,0.12,-0.37,0.36,-0.37 Z M24.76,5.38" fill="rgb(0,0,0)" transform="matrix(1,0,0,-1,-6.3206162886186075,19.139604048295453)"/>
</svg>