<?xml version="1.0" encoding="UTF-8"?>
<svg width="25" height="25" viewBox="0 0 25 25" version="1.1" xmlns="http://www.w3.org/2000/svg" xmlns:xlink="http://www.w3.org/1999/xlink">
 <path d="M12.24,-4.71 c-0.71,0,-1.36,0.28,-1.93,0.83 c-0.58,0.55,-1.07,1.35,-1.48,2.38 c-0.41,1.03,-0.73,2.27,-0.95,3.7 c-0.22,1.44,-0.33,3.05,-0.33,4.82 c0,1.77,0.11,3.37,0.33,4.81 c0.22,1.44,0.54,2.67,0.95,3.69 c0.41,1.03,0.91,1.82,1.48,2.37 c0.58,0.55,1.22,0.83,1.93,0.83 c0.71,0,1.36,-0.28,1.93,-0.83 c0.58,-0.55,1.07,-1.34,1.48,-2.37 c0.41,-1.03,0.73,-2.26,0.95,-3.69 c0.22,-1.44,0.33,-3.04,0.33,-4.81 c0,-1.78,-0.11,-3.38,-0.33,-4.82 c-0.22,-1.44,-0.54,-2.67,-0.95,-3.7 c-0.41,-1.03,-0.91,-1.82,-1.48,-2.38 c-0.58,-0.55,-1.22,-0.83,-1.93,-0.83 Z M12.24,-3.29 c0.64,0,1.19,0.43,1.66,1.28 c0.47,0.85,0.84,2.05,1.1,3.59 c0.26,1.54,0.39,3.35,0.39,5.43 c0,2.07,-0.13,3.88,-0.39,5.42 c-0.26,1.54,-0.63,2.73,-1.1,3.58 c-0.47,0.85,-1.03,1.27,-1.66,1.27 c-0.64,0,-1.19,-0.42,-1.66,-1.27 c-0.47,-0.85,-0.84,-2.04,-1.1,-3.58 c-0.26,-1.54,-0.39,-3.35,-0.39,-5.42 c0,-2.08,0.13,-3.89,0.39,-5.43 c0.26,-1.54,0.63,-2.74,1.1,-3.59 c0.47,-0.85,1.02,-1.28,1.66,-1.28 Z M2.08,1.05 c-0.35,0.62,-0.43,1.31,-0.24,2.08 c0.19,0.77,0.63,1.59,1.32,2.46 c0.69,0.87,1.6,1.76,2.74,2.67 c1.14,0.91,2.47,1.81,4.01,2.71 c1.54,0.89,2.98,1.59,4.34,2.12 c1.35,0.52,2.58,0.87,3.67,1.03 c1.1,0.16,2.03,0.13,2.79,-0.1 c0.77,-0.22,1.33,-0.64,1.69,-1.26 c0.36,-0.62,0.44,-1.32,0.25,-2.09 c-0.19,-0.77,-0.63,-1.6,-1.31,-2.46 c-0.68,-0.87,-1.59,-1.76,-2.73,-2.67 c-1.14,-0.91,-2.47,-1.81,-4.01,-2.69 c-1.54,-0.89,-2.98,-1.6,-4.35,-2.12 c-1.36,-0.53,-2.59,-0.87,-3.68,-1.03 c-1.1,-0.16,-2.03,-0.13,-2.79,0.1 c-0.77,0.22,-1.33,0.64,-1.69,1.26 Z M3.33,1.77 c0.32,-0.55,0.96,-0.82,1.93,-0.8 c0.97,0.02,2.19,0.3,3.66,0.85 c1.47,0.55,3.11,1.34,4.91,2.39 c1.8,1.03,3.29,2.04,4.5,3.04 c1.2,0.99,2.05,1.91,2.55,2.74 c0.5,0.83,0.58,1.52,0.27,2.06 c-0.32,0.55,-0.96,0.82,-1.93,0.81 c-0.97,-0.01,-2.19,-0.29,-3.65,-0.84 c-1.46,-0.54,-3.09,-1.34,-4.88,-2.37 c-1.81,-1.04,-3.31,-2.06,-4.52,-3.06 c-1.21,-1.0,-2.06,-1.91,-2.56,-2.74 c-0.5,-0.83,-0.59,-1.52,-0.27,-2.06 Z M22.4,1.05 c-0.36,-0.62,-0.92,-1.04,-1.68,-1.26 c-0.76,-0.22,-1.7,-0.26,-2.79,-0.1 c-1.1,0.16,-2.33,0.5,-3.68,1.03 c-1.36,0.53,-2.81,1.24,-4.35,2.12 c-1.54,0.88,-2.87,1.78,-4.01,2.69 c-1.13,0.91,-2.04,1.8,-2.73,2.67 c-0.69,0.87,-1.13,1.69,-1.32,2.46 c-0.19,0.77,-0.11,1.47,0.25,2.09 c0.36,0.62,0.93,1.04,1.69,1.26 c0.76,0.22,1.69,0.26,2.79,0.1 c1.1,-0.16,2.32,-0.5,3.67,-1.03 c1.35,-0.52,2.8,-1.23,4.34,-2.12 c1.54,-0.89,2.88,-1.8,4.01,-2.71 c1.13,-0.91,2.04,-1.8,2.73,-2.67 c0.69,-0.87,1.13,-1.69,1.32,-2.46 c0.19,-0.77,0.11,-1.46,-0.24,-2.08 Z M21.14,1.77 c0.32,0.54,0.23,1.23,-0.27,2.06 c-0.5,0.83,-1.35,1.74,-2.56,2.74 c-1.21,1.0,-2.71,2.02,-4.52,3.06 c-1.8,1.04,-3.42,1.83,-4.88,2.37 c-1.46,0.54,-2.68,0.82,-3.65,0.84 c-0.97,0.01,-1.62,-0.26,-1.93,-0.81 c-0.32,-0.54,-0.23,-1.22,0.27,-2.06 c0.5,-0.83,1.35,-1.75,2.55,-2.74 c1.21,-0.99,2.71,-2.01,4.5,-3.04 c1.8,-1.04,3.44,-1.84,4.9,-2.39 c1.47,-0.55,2.69,-0.83,3.66,-0.85 c0.97,-0.02,1.61,0.25,1.93,0.8 Z M12.25,4.94 c-0.57,0,-1.06,0.2,-1.46,0.6 c-0.41,0.4,-0.61,0.89,-0.61,1.47 c0,0.56,0.2,1.05,0.61,1.45 c0.41,0.41,0.89,0.61,1.46,0.61 c0.57,0,1.06,-0.2,1.46,-0.61 c0.4,-0.41,0.6,-0.89,0.6,-1.45 c0,-0.58,-0.2,-1.07,-0.6,-1.47 c-0.4,-0.4,-0.89,-0.6,-1.46,-0.6 Z M12.25,4.94" fill="rgb(0,0,0)" transform="matrix(1,0,0,-1,0.2609641335227266,19.504150390625)"/>
</svg>