<?xml version="1.0" encoding="UTF-8"?>
<svg width="25" height="25" viewBox="0 0 25 25" version="1.1" xmlns="http://www.w3.org/2000/svg" xmlns:xlink="http://www.w3.org/1999/xlink">
 <path d="M11.66,-2.9 c-1.35,0,-2.63,0.26,-3.83,0.78 c-1.2,0.52,-2.25,1.23,-3.16,2.15 c-0.91,0.91,-1.63,1.97,-2.15,3.16 c-0.52,1.2,-0.78,2.47,-0.78,3.83 c0,1.35,0.26,2.63,0.78,3.83 c0.52,1.2,1.23,2.25,2.14,3.16 c0.91,0.91,1.96,1.63,3.16,2.15 c1.2,0.52,2.47,0.78,3.83,0.78 c1.35,0,2.63,-0.26,3.83,-0.78 c1.2,-0.52,2.26,-1.23,3.17,-2.15 c0.91,-0.91,1.63,-1.97,2.15,-3.16 c0.52,-1.2,0.78,-2.47,0.78,-3.83 c0,-1.35,-0.26,-2.63,-0.78,-3.83 c-0.52,-1.2,-1.23,-2.25,-2.15,-3.16 c-0.91,-0.91,-1.97,-1.63,-3.16,-2.15 c-1.2,-0.52,-2.47,-0.78,-3.83,-0.78 Z M11.66,-1.24 c1.15,0,2.22,0.21,3.22,0.64 c1.0,0.43,1.88,1.02,2.63,1.77 c0.76,0.76,1.35,1.63,1.77,2.63 c0.42,1.0,0.64,2.07,0.64,3.22 c0,1.15,-0.21,2.22,-0.64,3.22 c-0.43,1.0,-1.02,1.88,-1.77,2.63 c-0.76,0.76,-1.63,1.35,-2.63,1.77 c-1.0,0.42,-2.08,0.64,-3.22,0.64 c-1.15,0,-2.22,-0.21,-3.22,-0.64 c-1.0,-0.42,-1.87,-1.02,-2.62,-1.77 c-0.75,-0.76,-1.34,-1.64,-1.76,-2.63 c-0.42,-1.0,-0.64,-2.07,-0.64,-3.22 c0,-1.15,0.21,-2.22,0.64,-3.22 c0.42,-1.0,1.01,-1.87,1.77,-2.63 c0.76,-0.76,1.63,-1.35,2.63,-1.77 c1.0,-0.43,2.07,-0.64,3.22,-0.64 Z M11.46,5.01 c-0.52,0,-0.78,0.26,-0.78,0.77 c0,0.02,0,0.04,0,0.06 c0,0.02,0,0.04,0,0.06 c0,0.48,0.12,0.87,0.35,1.16 c0.23,0.29,0.52,0.56,0.87,0.8 c0.43,0.3,0.75,0.55,0.95,0.76 c0.21,0.21,0.31,0.48,0.31,0.81 c0,0.37,-0.13,0.67,-0.4,0.9 c-0.27,0.23,-0.62,0.35,-1.07,0.35 c-0.21,0,-0.41,-0.04,-0.6,-0.11 c-0.18,-0.07,-0.35,-0.17,-0.5,-0.31 c-0.15,-0.13,-0.28,-0.29,-0.4,-0.48 l-0.17,-0.23 c-0.08,-0.12,-0.18,-0.21,-0.3,-0.28 c-0.11,-0.07,-0.25,-0.11,-0.41,-0.11 c-0.16,0,-0.31,0.06,-0.46,0.17 c-0.14,0.11,-0.21,0.28,-0.21,0.5 c0,0.08,0.01,0.17,0.02,0.24 c0.01,0.08,0.03,0.16,0.06,0.23 c0.14,0.45,0.47,0.84,1.0,1.18 c0.53,0.34,1.21,0.51,2.05,0.51 c0.55,0,1.06,-0.1,1.53,-0.29 c0.47,-0.19,0.84,-0.47,1.13,-0.84 c0.29,-0.37,0.43,-0.82,0.43,-1.36 c0,-0.58,-0.15,-1.04,-0.46,-1.38 c-0.3,-0.34,-0.69,-0.66,-1.16,-0.97 c-0.34,-0.23,-0.6,-0.44,-0.76,-0.64 c-0.16,-0.2,-0.24,-0.43,-0.24,-0.7 c0,-0.01,0,-0.03,0,-0.05 c0,-0.02,0,-0.04,0,-0.06 c0,-0.19,-0.07,-0.35,-0.21,-0.49 c-0.14,-0.14,-0.33,-0.2,-0.57,-0.2 Z M11.43,2.11 c-0.28,0,-0.52,0.1,-0.73,0.3 c-0.21,0.2,-0.31,0.44,-0.31,0.71 c0,0.28,0.1,0.52,0.31,0.71 c0.2,0.2,0.45,0.3,0.73,0.3 c0.29,0,0.53,-0.1,0.74,-0.29 c0.21,-0.19,0.31,-0.43,0.31,-0.72 c0,-0.29,-0.1,-0.52,-0.31,-0.72 c-0.21,-0.19,-0.45,-0.29,-0.74,-0.29 Z M11.43,2.11" fill="rgb(0,0,0)" transform="matrix(1,0,0,-1,0.84423828125,19.51873224431818)"/>
</svg>