<?xml version="1.0" encoding="UTF-8"?>
<svg width="25" height="25" viewBox="0 0 25 25" version="1.1" xmlns="http://www.w3.org/2000/svg" xmlns:xlink="http://www.w3.org/1999/xlink">
 <path d="M8.25,-3.72 c-0.28,0,-0.49,0.09,-0.64,0.27 c-0.15,0.18,-0.22,0.42,-0.22,0.73 l0,2.83 l-0.46,0 c-0.97,0,-1.78,0.17,-2.44,0.52 c-0.66,0.34,-1.16,0.85,-1.5,1.51 c-0.34,0.66,-0.51,1.47,-0.51,2.42 l0,7.45 c0,0.95,0.17,1.76,0.51,2.42 c0.34,0.66,0.84,1.16,1.5,1.51 c0.66,0.35,1.47,0.52,2.44,0.52 l12.52,0 c0.97,0,1.78,-0.17,2.44,-0.52 c0.66,-0.35,1.16,-0.85,1.5,-1.51 c0.34,-0.66,0.51,-1.47,0.51,-2.42 l0,-7.45 c0,-0.95,-0.17,-1.76,-0.51,-2.42 c-0.34,-0.66,-0.84,-1.16,-1.5,-1.51 c-0.66,-0.34,-1.47,-0.52,-2.44,-0.52 l-6.57,0 l-3.51,-3.21 c-0.23,-0.21,-0.43,-0.37,-0.59,-0.47 c-0.16,-0.1,-0.34,-0.15,-0.53,-0.15 Z M11.58,3.06 l3.77,0 c0.19,0,0.36,0.06,0.49,0.18 c0.13,0.12,0.19,0.28,0.19,0.48 c0,0.18,-0.06,0.34,-0.19,0.47 c-0.13,0.13,-0.29,0.19,-0.49,0.19 l-1.15,0 l0,4.71 c0,0.25,-0.06,0.46,-0.18,0.61 c-0.12,0.16,-0.3,0.23,-0.54,0.23 l-1.74,0 c-0.19,0,-0.35,-0.06,-0.48,-0.19 c-0.13,-0.13,-0.2,-0.29,-0.2,-0.47 c0,-0.19,0.07,-0.34,0.2,-0.47 c0.13,-0.12,0.29,-0.18,0.48,-0.18 l0.99,0 l0,-4.24 l-1.15,0 c-0.19,0,-0.36,-0.06,-0.49,-0.19 c-0.13,-0.13,-0.19,-0.29,-0.19,-0.47 c0,-0.19,0.06,-0.35,0.19,-0.48 c0.13,-0.12,0.29,-0.18,0.49,-0.18 Z M13.11,11.47 c0.34,0,0.63,0.12,0.86,0.35 c0.23,0.24,0.35,0.52,0.35,0.86 c0,0.34,-0.12,0.63,-0.35,0.87 c-0.23,0.24,-0.52,0.35,-0.86,0.35 c-0.34,-0.0,-0.62,-0.12,-0.86,-0.35 c-0.24,-0.24,-0.35,-0.53,-0.35,-0.87 c0,-0.34,0.12,-0.62,0.35,-0.86 c0.24,-0.24,0.52,-0.35,0.86,-0.35 Z M13.11,11.47" fill="rgb(0,0,0)" transform="matrix(1,0,0,-1,-0.6917169744318201,18.862548828125)"/>
</svg>